<svg xmlns="http://www.w3.org/2000/svg" viewBox="0 0 800 600">
  <defs>
    <linearGradient id="starGradient" x1="0%" y1="0%" x2="100%" y2="100%">
      <stop offset="0%" style="stop-color:#059669;stop-opacity:1" />
      <stop offset="50%" style="stop-color:#10B981;stop-opacity:1" />
      <stop offset="100%" style="stop-color:#065F46;stop-opacity:1" />
    </linearGradient>
    <linearGradient id="linesGradient" x1="0%" y1="0%" x2="100%" y2="100%">
      <stop offset="0%" style="stop-color:#059669;stop-opacity:1" />
      <stop offset="100%" style="stop-color:#10B981;stop-opacity:1" />
    </linearGradient>
  </defs>
  
  <!-- Tech circuit lines -->
  <g stroke="url(#linesGradient)" stroke-width="8" fill="none">
    <circle cx="150" cy="200" r="12" stroke-width="6"/>
    <circle cx="150" cy="250" r="8" stroke-width="4"/>
    <circle cx="150" cy="300" r="10" stroke-width="5"/>
    <line x1="162" y1="200" x2="220" y2="200"/>
    <line x1="158" y1="250" x2="200" y2="250"/>
    <line x1="160" y1="300" x2="240" y2="300"/>
    <circle cx="230" cy="200" r="6" stroke-width="3"/>
    <circle cx="210" cy="250" r="5" stroke-width="3"/>
    <circle cx="250" cy="300" r="7" stroke-width="4"/>
  </g>
  
  <!-- Shooting star trails -->
  <g stroke="url(#linesGradient)" stroke-width="12" fill="none" stroke-linecap="round">
    <path d="M 180 350 Q 280 320 380 300" />
    <path d="M 200 380 Q 300 350 400 330" />
    <path d="M 220 410 Q 320 380 420 360" />
    <path d="M 240 440 Q 340 410 440 390" />
  </g>
  
  <!-- Main star -->
  <path d="M 400 100 L 440 200 L 540 200 L 460 260 L 500 360 L 400 300 L 300 360 L 340 260 L 260 200 L 360 200 Z" 
        fill="url(#starGradient)" 
        stroke="#065F46" 
        stroke-width="4"/>
  
  <!-- Inner star highlight -->
  <path d="M 400 140 L 420 200 L 480 200 L 440 240 L 460 300 L 400 260 L 340 300 L 360 240 L 320 200 L 380 200 Z" 
        fill="white" 
        opacity="0.3"/>
  
  <!-- Text -->
  <text x="400" y="520" 
        font-family="Inter, Arial, sans-serif" 
        font-size="72" 
        font-weight="700" 
        text-anchor="middle" 
        fill="#065F46">StarLance</text>
</svg>